# xmcd CD database file
#
# Track frame offsets:
#	150
#	15910
#	35260
#	49232
#	63972
#	77702
#	93840
#	108092
#	127312
#	142410
#	156380
#	167250
#	180875
#	193025
#	207582
#	225452
#	242130
#	255660
#
# Disc length: 3710 seconds
#
# Revision: 2
# Processed by: cddbd v1.5.2PL0 Copyright (c) Steve Scherf et al.
# Submitted via: CDex 1.70beta3
#
DISCID=ec0e7c12
DTITLE=ドリフターズ - BIG ARTIST BEST COLLECTION ドリフターズ
DYEAR=1989
DGENRE=Pop
TTITLE0=いい湯だな
TTITLE1=東村山音頭
TTITLE2=ドリフのズンドコ節
TTITLE3=ミヨちゃん
TTITLE4=ズッコケちゃん
TTITLE5=ドリフのツンツン節
TTITLE6=のってる音頭
TTITLE7=ドリフのピンポンパン
TTITLE8=ドリフ音頭(北海盆唄より)
TTITLE9=ゴーウエスト(GO WEST)
TTITLE10=誰かさんと誰かさん
TTITLE11=ほんとにほんとに御苦労さん
TTITLE12=ドリフのバイのバイのバイ
TTITLE13=大変うたい込み
TTITLE14=ドリフの真赤な封筒
TTITLE15=チョットだけよ!全員集合
TTITLE16=ドリフの英語塾
TTITLE17=ドリフのビバノン音頭-「にほんのうた」シリーズ“いい湯だな”より
EXTD=YEAR: 1989
EXTT0=
EXTT1=
EXTT2=
EXTT3=
EXTT4=
EXTT5=
EXTT6=
EXTT7=
EXTT8=
EXTT9=
EXTT10=
EXTT11=
EXTT12=
EXTT13=
EXTT14=
EXTT15=
EXTT16=
EXTT17=
PLAYORDER=
